<svg b-fcu4ju39lf="" xmlns="http://www.w3.org/2000/svg" xmlns:xlink="http://www.w3.org/1999/xlink" viewBox="0 0 129.027 30">
<g b-fcu4ju39lf="" transform="translate(0 0)">
<g b-fcu4ju39lf="" transform="translate(0 0)">
<path b-fcu4ju39lf="" d="M115.241,25.865h-8.42l-2.082,5.3h-3.027l7.757-18.921h3.217l7.757,18.921h-3.122Zm-7.506-2.4h6.591l-.851-2.145c-.757-2.018-1.64-4.32-2.335-6.244h-.188c-.7,1.955-1.546,4.226-2.366,6.244Z" transform="translate(-56.421 -6.791)" class="svg-logo-secundary"></path>
<path b-fcu4ju39lf="" d="M143.132,31.123l2.585-.5c0,2.085,1.514,3.5,4.289,3.5,2.083,0,3.092-.851,3.122-2.208,0-1.229-.883-1.86-4.037-2.4-3.879-.725-5.3-2.113-5.3-4.415,0-2.555,1.892-4.289,5.581-4.289,3.784,0,6.087,1.971,6.087,4.6l-2.617.631a3.24,3.24,0,0,0-3.47-3.09c-1.86,0-2.837.757-2.837,1.987s.757,1.986,3.785,2.491c4.036.694,5.518,2.145,5.518,4.415,0,2.68-1.892,4.446-5.866,4.446-4.572,0-6.842-2.084-6.842-5.172" transform="translate(-79.397 -11.544)" class="svg-logo-secundary"></path>
<path b-fcu4ju39lf="" d="M182.617,36.295c-3.248,0-4.95-1.8-5.55-4.761h-.031v8.735h-2.744V21.189h2.744v4.32h.062c.631-2.933,2.365-4.7,5.488-4.7,3.972,0,6.055,2.964,6.055,7.695,0,4.825-2.209,7.789-6.024,7.789m3.311-7.789c0-3.311-1.388-5.2-4.35-5.2-2.775,0-4.541,1.829-4.541,5.109v.22c0,3.154,1.766,5.2,4.541,5.2,2.869,0,4.35-1.955,4.35-5.329" transform="translate(-96.682 -11.544)" class="svg-logo-secundary"></path>
<path b-fcu4ju39lf="" d="M210.686,11.321h3.122v2.334h-3.122Zm.19,4.6h2.711V30.652h-2.711Z" transform="translate(-116.87 -6.28)" class="svg-logo-secundary"></path>
<path b-fcu4ju39lf="" d="M223.717,36.388V21.661h2.743V26.2h.062c.6-3.438,1.987-4.541,4.353-4.541h.887v3.027h-1.3c-2.775,0-4,1.072-4,3.911v7.789Z" transform="translate(-124.098 -12.016)" class="svg-logo-secundary"></path>
<path b-fcu4ju39lf="" d="M244.6,11.321h3.122v2.334H244.6Zm.189,4.6h2.712V30.652h-2.712Z" transform="translate(-135.685 -6.28)" class="svg-logo-secundary"></path>
 <path b-fcu4ju39lf="" d="M266.392,32.242h-.031a5.021,5.021,0,0,1-5.2,4.068c-2.87,0-4.732-1.388-4.732-4.163,0-2.586,1.64-4.51,5.2-4.51h4.761V26.85c0-2.3-.883-3.563-3.215-3.563-2.113,0-3.69.893-3.69,3.406l-2.617-.378c0-3.359,2.523-5.361,6.4-5.361,4.1,0,5.865,2.081,5.865,5.865v5.148l-1.873.689Zm0-1.734v-.694h-4.383c-1.86,0-2.869.694-2.869,1.987,0,1.135.725,2.207,2.869,2.207,2.712,0,4.383-1.482,4.383-3.5" transform="translate(-142.243 -11.623)" class="svg-logo-secundary"></path>
<path b-fcu4ju39lf="" d="M283.682,49.98c-3.973,0-4.879-1.795-4.879-4.2l2.745-.182c.031,1.356.208,2.208,2.1,2.208Z" transform="translate(-154.655 -25.293)" class="svg-logo-secundary"></path>
<path b-fcu4ju39lf="" d="M16.765,23.438,24.6,9.828,20,1.869A3.7,3.7,0,0,0,16.762,0h0A3.7,3.7,0,0,0,13.52,1.869L.511,24.378a3.7,3.7,0,0,0,.572,4.5,3.7,3.7,0,0,0,4.486.647L16.76,23.435Z" transform="translate(0 0)" class="svg-logo-primary"></path>
<path b-fcu4ju39lf="" d="M56.894,40.037,50.07,28.229,43.058,40.406l8.778,4.773a3.742,3.742,0,0,0,5.058-5.142" transform="translate(-23.885 -15.659)" class="svg-logo-secundary"></path>
</g>
</g>
</svg>